<svg width="100" height="165" viewBox="0 0 100 165" fill="none" xmlns="http://www.w3.org/2000/svg">
<g clip-path="url(#clip0_10_960)">
<path d="M45 5H35V15H45V5Z" fill="green"/>
<path d="M95 30H85V40H95V30Z" fill="green"/>
<path d="M100 20H90V30H100V20Z" fill="green"/>
<path d="M13 20H3V30H13V20Z" fill="green"/>
<path d="M90 40H80V50H90V40Z" fill="green"/>
<path d="M85 50H75V60H85V50Z" fill="green"/>
<path d="M17 30H7V40H17V30Z" fill="green"/>
<path d="M22 40H12V50H22V40Z" fill="green"/>
<path d="M26 50H16V60H26V50Z" fill="green"/>
<path d="M65 45H35V55H65V45Z" fill="green"/>
<path d="M75 50H65V110H75V50Z" fill="green"/>
<path d="M60 35H40V45H60V35Z" fill="green"/>
<path d="M65 25H55V35H65V25Z" fill="green"/>
<path d="M43 25H33V35H43V25Z" fill="green"/>
<path d="M70 15H60V25H70V15Z" fill="green"/>
<path d="M40 15H30V25H40V15Z" fill="green"/>
<path d="M65 5H55V15H65V5Z" fill="green"/>
<path d="M55 0H45V10H55V0Z" fill="green"/>
<path d="M85 145H75V155H85V145Z" fill="green"/>
<path d="M90 155H80V165H90V155Z" fill="green"/>
<path d="M100 155H90V165H100V155Z" fill="green"/>
<path d="M20 155H10V165H20V155Z" fill="green"/>
<path d="M10 155H0V165H10V155Z" fill="green"/>
<path d="M80 135H70V145H80V135Z" fill="green"/>
<path d="M75 125H65V135H75V125Z" fill="green"/>
<path d="M70 115H60V125H70V115Z" fill="green"/>
<path d="M25 145H15V155H25V145Z" fill="green"/>
<path d="M30 135H20V145H30V135Z" fill="green"/>
<path d="M35 125H25V135H35V125Z" fill="green"/>
<path d="M40 115H30V125H40V115Z" fill="green"/>
<path d="M65 105H35V115H65V105Z" fill="green"/>
<path d="M36 50H26V110H36V50Z" fill="green"/>
</g>
<defs>
<clipPath id="clip0_10_960">
<rect width="100" height="165" fill="white"/>
</clipPath>
</defs>
</svg>
