<svg width="180" height="210" viewBox="0 0 180 210" fill="none" xmlns="http://www.w3.org/2000/svg">
<path d="M125 25H115V35H125V25Z" fill="black"/>
<path d="M175 90H165V100H175V90Z" fill="black"/>
<path d="M180 100H170V110H180V100Z" fill="black"/>
<path d="M91 100H81V110H91V100Z" fill="black"/>
<path d="M170 80H160V90H170V80Z" fill="black"/>
<path d="M165 70H155V80H165V70Z" fill="black"/>
<path d="M96 90H86V100H96V90Z" fill="black"/>
<path d="M101 80H91V90H101V80Z" fill="black"/>
<path d="M106 70H96V80H106V70Z" fill="black"/>
<path d="M145 65H115V75H145V65Z" fill="black"/>
<path d="M155 70H145V130H155V70Z" fill="black"/>
<path d="M140 55H120V65H140V55Z" fill="black"/>
<path d="M145 45H135V55H145V45Z" fill="black"/>
<path d="M123 45H113V55H123V45Z" fill="black"/>
<path d="M150 35H140V45H150V35Z" fill="black"/>
<path d="M120 35H110V45H120V35Z" fill="black"/>
<path d="M145 25H135V35H145V25Z" fill="black"/>
<path d="M60 200H50V210H60V200Z" fill="black"/>
<path d="M52 190H42V200H52V190Z" fill="black"/>
<path d="M45 180H35V190H45V180Z" fill="black"/>
<path d="M52 20H42V30H52V20Z" fill="black"/>
<path d="M60 10H50V20H60V10Z" fill="black"/>
<path d="M45 30H35V40H45V30Z" fill="black"/>
<path d="M35 10H25V210H35V10Z" fill="black"/>
<path d="M135 0H25V10H135V0Z" fill="black"/>
<path d="M135 10H125V30H135V10Z" fill="black"/>
<path d="M145 125H115V135H145V125Z" fill="black"/>
<path d="M116 70H106V130H116V70Z" fill="black"/>
<path d="M10 200H0V210H10V200Z" fill="black"/>
<path d="M18 190H8V200H18V190Z" fill="black"/>
<path d="M25 180H15V190H25V180Z" fill="black"/>
</svg>
