<svg width="180" height="210" viewBox="0 0 180 210" fill="none" xmlns="http://www.w3.org/2000/svg">
<!-- gallows -->
<path d="M60 200H50V210H60V200Z" fill="black"/>
<path d="M52 190H42V200H52V190Z" fill="black"/>
<path d="M45 180H35V190H45V180Z" fill="black"/>
<path d="M52 20H42V30H52V20Z" fill="black"/>
<path d="M60 10H50V20H60V10Z" fill="black"/>
<path d="M45 30H35V40H45V30Z" fill="black"/>
<path d="M35 10H25V210H35V10Z" fill="black"/>
<path d="M135 0H25V10H135V0Z" fill="black"/>
<path d="M135 10H125V20H135V10Z" fill="black"/>
<path d="M10 200H0V210H10V200Z" fill="black"/>
<path d="M18 190H8V200H18V190Z" fill="black"/>
<path d="M25 180H15V190H25V180Z" fill="black"/>
</svg>